# xmcd CD database file generated by Grip 2.95
# 
# Track frame offsets:
#       150
#       21106
#       46131
#       70671
#       90338
#       111390
#       134303
#       153780
#       187019
#       210551
#       225093
# 
# Disc length: 3366 seconds
# 
# Revision: 3
# Processed by: cddbd v1.4b42PL1 Copyright (c) Steve Scherf et al.
# Submitted via: Grip 2.95
# 
DISCID=800d240b
DTITLE=Tom Hunter - Big Thunder
DYEAR=1900
DGENRE=
TTITLE0=Stop
TTITLE1=Smack dab in the Middle
TTITLE2=Fools Paradise
TTITLE3=B.T. Boogie
TTITLE4=Bad Bad Whiskey
TTITLE5=She's So Fine
TTITLE6=No One to Come Home To
TTITLE7=Goin Down Slow
TTITLE8=Stumble
TTITLE9=Beer Drinkin Woman
TTITLE10=Trouble in Mind
EXTD=
EXTT0=
EXTT1=
EXTT2=
EXTT3=
EXTT4=
EXTT5=
EXTT6=
EXTT7=
EXTT8=
EXTT9=
EXTT10=
PLAYORDER=
